<svg id="Слой_1" data-name="Слой 1" xmlns="http://www.w3.org/2000/svg" viewBox="0 0 371.92 51.64"><defs><style>.cls-1{fill:#1d1d1b;}.cls-2{fill:none;stroke:#010101;stroke-linecap:round;stroke-linejoin:round;stroke-width:5px;}</style></defs><path class="cls-1" d="M79.24,32.39a2.65,2.65,0,0,0-1.06-1.94,4.24,4.24,0,0,0-2.55-.69,5,5,0,0,0-1.84.3,2.69,2.69,0,0,0-1.15.84,2,2,0,0,0-.4,1.22,1.7,1.7,0,0,0,.25,1,2.25,2.25,0,0,0,.72.72,5.08,5.08,0,0,0,1.07.53,9.87,9.87,0,0,0,1.3.37l1.9.46A13.16,13.16,0,0,1,80,36a8,8,0,0,1,2,1.27,5.31,5.31,0,0,1,1.31,1.77,5.75,5.75,0,0,1,.48,2.34,5.83,5.83,0,0,1-1,3.35A6.17,6.17,0,0,1,80,46.93a11.14,11.14,0,0,1-4.4.78,11.59,11.59,0,0,1-4.44-.78,6.54,6.54,0,0,1-3-2.32,6.89,6.89,0,0,1-1.1-3.82h4.31A3.21,3.21,0,0,0,72,42.56a3.32,3.32,0,0,0,1.46,1.06,5.74,5.74,0,0,0,2.06.35,5.38,5.38,0,0,0,2-.33,3,3,0,0,0,1.3-.91,2.15,2.15,0,0,0,.47-1.35,1.76,1.76,0,0,0-.42-1.2,3.22,3.22,0,0,0-1.21-.82,13,13,0,0,0-2-.62l-2.29-.58a9.48,9.48,0,0,1-4.21-2,4.67,4.67,0,0,1-1.54-3.71,5.51,5.51,0,0,1,1-3.35,6.79,6.79,0,0,1,2.84-2.23A10,10,0,0,1,75.66,26a9.72,9.72,0,0,1,4.11.81,6.45,6.45,0,0,1,2.73,2.23,5.94,5.94,0,0,1,1,3.32Z" transform="translate(-11.62 -9.25)"/><path class="cls-1" d="M86,30V26.32H103.3V30H96.85V47.41H92.44V30Z" transform="translate(-11.62 -9.25)"/><path class="cls-1" d="M106.17,47.41V26.32h14.21V30h-9.75v5h9V38.7h-9v5h9.79v3.67Z" transform="translate(-11.62 -9.25)"/><path class="cls-1" d="M123.93,47.41V26.32h8.32a8.61,8.61,0,0,1,4.09.91,6.23,6.23,0,0,1,2.58,2.53,7.57,7.57,0,0,1,.89,3.71,7.39,7.39,0,0,1-.91,3.71,6.21,6.21,0,0,1-2.62,2.5,8.79,8.79,0,0,1-4.14.89h-5.31V37h4.59a4.44,4.44,0,0,0,2.12-.45,3,3,0,0,0,1.26-1.24,3.93,3.93,0,0,0,.42-1.84,3.87,3.87,0,0,0-.42-1.84,2.94,2.94,0,0,0-1.26-1.23A4.66,4.66,0,0,0,131.4,30h-3V47.41Z" transform="translate(-11.62 -9.25)"/><path class="cls-1" d="M154.16,32.39a2.63,2.63,0,0,0-1.07-1.94,4.18,4.18,0,0,0-2.54-.69,5,5,0,0,0-1.84.3,2.69,2.69,0,0,0-1.15.84,2,2,0,0,0-.4,1.22,1.78,1.78,0,0,0,.24,1,2.39,2.39,0,0,0,.73.72,5.08,5.08,0,0,0,1.07.53,9.87,9.87,0,0,0,1.3.37l1.89.46a13.27,13.27,0,0,1,2.54.82,8,8,0,0,1,2,1.27,5.31,5.31,0,0,1,1.31,1.77,5.75,5.75,0,0,1,.48,2.34,5.83,5.83,0,0,1-1,3.35,6.17,6.17,0,0,1-2.8,2.19,11.17,11.17,0,0,1-4.4.78,11.59,11.59,0,0,1-4.44-.78,6.54,6.54,0,0,1-3-2.32A7,7,0,0,1,142,40.79h4.32a3.21,3.21,0,0,0,.61,1.77,3.34,3.34,0,0,0,1.45,1.06,5.83,5.83,0,0,0,2.07.35,5.38,5.38,0,0,0,2-.33,3,3,0,0,0,1.3-.91,2.15,2.15,0,0,0,.47-1.35,1.76,1.76,0,0,0-.42-1.2,3.18,3.18,0,0,0-1.22-.82,12.53,12.53,0,0,0-2-.62l-2.29-.58a9.43,9.43,0,0,1-4.21-2,4.67,4.67,0,0,1-1.54-3.71,5.51,5.51,0,0,1,1-3.35,6.79,6.79,0,0,1,2.84-2.23,10,10,0,0,1,4.12-.81,9.72,9.72,0,0,1,4.11.81,6.45,6.45,0,0,1,2.73,2.23,5.94,5.94,0,0,1,1,3.32Z" transform="translate(-11.62 -9.25)"/><path class="cls-1" d="M173.18,47.41l-6-21.09H172L175.5,41h.18l3.85-14.66h4.17L187.54,41h.19l3.49-14.69h4.87l-6,21.09h-4.34l-4-13.79h-.16l-4,13.79Z" transform="translate(-11.62 -9.25)"/><path class="cls-1" d="M202.93,26.32V47.41h-4.46V26.32Z" transform="translate(-11.62 -9.25)"/><path class="cls-1" d="M205.8,30V26.32h17.32V30h-6.45V47.41h-4.41V30Z" transform="translate(-11.62 -9.25)"/><path class="cls-1" d="M226,47.41V26.32h4.46V35h9.06v-8.7H244V47.41H239.5V38.7h-9.06v8.71Z" transform="translate(-11.62 -9.25)"/><path class="cls-1" d="M258,47.41H253.2l7.28-21.09h5.75l7.27,21.09h-4.78l-5.28-16.27h-.17Zm-.3-8.29H269V42.6H257.68Z" transform="translate(-11.62 -9.25)"/><path class="cls-1" d="M294.2,32.39a2.62,2.62,0,0,0-1.06-1.94,4.2,4.2,0,0,0-2.54-.69,5,5,0,0,0-1.85.3,2.76,2.76,0,0,0-1.15.84,2,2,0,0,0-.39,1.22,1.63,1.63,0,0,0,.24,1,2.39,2.39,0,0,0,.73.72,4.64,4.64,0,0,0,1.07.53,9.3,9.3,0,0,0,1.29.37l1.9.46A13.16,13.16,0,0,1,295,36a7.86,7.86,0,0,1,2,1.27,5.31,5.31,0,0,1,1.31,1.77,5.44,5.44,0,0,1,.48,2.34,5.75,5.75,0,0,1-1,3.35,6.23,6.23,0,0,1-2.8,2.19,11.2,11.2,0,0,1-4.4.78,11.61,11.61,0,0,1-4.45-.78,6.46,6.46,0,0,1-2.94-2.32,6.81,6.81,0,0,1-1.11-3.82h4.31a3.21,3.21,0,0,0,.62,1.77,3.29,3.29,0,0,0,1.45,1.06,5.78,5.78,0,0,0,2.06.35,5.4,5.4,0,0,0,2-.33,3,3,0,0,0,1.3-.91,2.14,2.14,0,0,0,.46-1.35,1.76,1.76,0,0,0-.42-1.2,3.14,3.14,0,0,0-1.21-.82,12.53,12.53,0,0,0-1.95-.62l-2.3-.58a9.48,9.48,0,0,1-4.21-2,4.66,4.66,0,0,1-1.53-3.71,5.5,5.5,0,0,1,1-3.35,6.82,6.82,0,0,1,2.85-2.23,10,10,0,0,1,4.12-.81,9.71,9.71,0,0,1,4.1.81,6.45,6.45,0,0,1,2.73,2.23,5.87,5.87,0,0,1,1,3.32Z" transform="translate(-11.62 -9.25)"/><path class="cls-1" d="M301.75,47.41V26.32h4.46V35h9.05v-8.7h4.45V47.41h-4.45V38.7h-9.05v8.71Z" transform="translate(-11.62 -9.25)"/><path class="cls-1" d="M327.84,26.32V47.41h-4.46V26.32Z" transform="translate(-11.62 -9.25)"/><path class="cls-1" d="M331.52,47.41V26.32h14.21V30H336v5h9V38.7h-9v5h9.79v3.67Z" transform="translate(-11.62 -9.25)"/><path class="cls-1" d="M349.29,47.41V26.32h4.45V43.74h9.05v3.67Z" transform="translate(-11.62 -9.25)"/><path class="cls-1" d="M373.22,47.41h-7.48V26.32h7.54a11.23,11.23,0,0,1,5.48,1.26,8.64,8.64,0,0,1,3.54,3.62,12.08,12.08,0,0,1,1.24,5.65,12.15,12.15,0,0,1-1.24,5.66,8.68,8.68,0,0,1-3.56,3.64A11.37,11.37,0,0,1,373.22,47.41Zm-3-3.82H373a7.13,7.13,0,0,0,3.33-.7,4.47,4.47,0,0,0,2-2.2,9.16,9.16,0,0,0,.69-3.84A9.06,9.06,0,0,0,378.4,33a4.48,4.48,0,0,0-2-2.19,7.26,7.26,0,0,0-3.33-.7H370.2Z" transform="translate(-11.62 -9.25)"/><path class="cls-2" d="M33.76,27.28l-3.94,7.84,10.47,0L36.35,43M56,35.17C56,46.84,41.67,55.28,36.7,57.86a4.17,4.17,0,0,1-1.18.49,2.8,2.8,0,0,1-1,0,3.86,3.86,0,0,1-1.18-.5c-5-2.59-19.24-11.08-19.22-22.75V25.2a12.18,12.18,0,0,1,.35-4,5.31,5.31,0,0,1,1.44-2.06,11.9,11.9,0,0,1,3.66-1.74l14-5.23a5.34,5.34,0,0,1,1.1-.35,3.14,3.14,0,0,1,.75,0,6.06,6.06,0,0,1,1.1.35l14,5.29a11.9,11.9,0,0,1,3.66,1.74,5.35,5.35,0,0,1,1.43,2.07,12.08,12.08,0,0,1,.33,4Z" transform="translate(-11.62 -9.25)"/></svg>